PathFileType	3	(X/Y/Z)	D:\Jess\PFP\Labelled\PA07\20250627\SRRun01.trc
DataRate	CameraRate	NumFrames	NumMarkers	Units	OrigDataRate	OrigDataStartFrame	OrigNumFrames
250.0	250.0	4	37	mm	250.0	35000	2501
Frame#	Time	C7			T10			CLAV			LSHO			RSHO			LASIS			RASIS			LPSIS			RPSIS			LILCR			RILCR			LGTR			LTHI			LLTHI			LLEP			LMEP			LPSH			LLSH			LDSH			LLMAL			LMMAL			LTOE			L5TH			LHEE			RGTR			RTHI			RLTHI			RLEP			RMEP			RPSH			RLSH			RDSH			RLMAL			RMMAL			RTOE			R5TH			RHEE			
		X1	Y1	Z1	X2	Y2	Z2	X3	Y3	Z3	X4	Y4	Z4	X5	Y5	Z5	X6	Y6	Z6	X7	Y7	Z7	X8	Y8	Z8	X9	Y9	Z9	X10	Y10	Z10	X11	Y11	Z11	X12	Y12	Z12	X13	Y13	Z13	X14	Y14	Z14	X15	Y15	Z15	X16	Y16	Z16	X17	Y17	Z17	X18	Y18	Z18	X19	Y19	Z19	X20	Y20	Z20	X21	Y21	Z21	X22	Y22	Z22	X23	Y23	Z23	X24	Y24	Z24	X25	Y25	Z25	X26	Y26	Z26	X27	Y27	Z27	X28	Y28	Z28	X29	Y29	Z29	X30	Y30	Z30	X31	Y31	Z31	X32	Y32	Z32	X33	Y33	Z33	X34	Y34	Z34	X35	Y35	Z35	X36	Y36	Z36	X37	Y37	Z37	

1	139.996	811.4749325619288	1452.85643739253	-843.8946922573991	809.1953629205173	1195.901839536295	-773.5935509799066	832.1098177642953	1339.080042639778	-973.8891715091833	657.4506455267915	1430.659378746373	-913.2460956911701	975.1798007236084	1417.001110268088	-887.3151736761326	702.6193988183808	950.0965873951534	-912.8884057224199	911.4045984041303	957.6467664248148	-925.8784688654815	796.336440747792	1023.74342459491	-761.5160798224452	838.7905939485101	1021.838666279287	-760.7988511583366	667.3131464054618	1033.069811681398	-882.2753198424451	971.8171696283441	1045.591824276436	-857.1737176298143	649.7516820041174	847.36571882622	-824.6545794326587	729.5890896684184	669.9191910912929	-869.2797393355294	674.3745762545462	638.713650579263	-774.0742972702542	693.0465703116687	526.3667837224341	-703.8128107353602	nan	nan	nan	746.2121596179559	419.3545630639946	-658.1657135297522	683.1459187097504	417.6394118153406	-526.0929499004953	740.8640087031699	327.5547411342289	-495.6959290999313	712.6863924965284	305.4754382745197	-378.6621762833773	nan	nan	nan	732.9052033350646	149.1694938564366	-393.4908331680884	697.7596900101742	156.6864621890119	-356.2306627121566	765.6177925630998	365.8727531854341	-330.6454873206283	992.5437297775081	856.7439608719211	-862.2817188554396	910.4050385105199	719.1506294677843	-979.2400410635453	975.4968003500505	639.5792061237428	-921.4432995654223	954.7780592783255	516.8679669881747	-942.4531135513876	nan	nan	nan	905.1870802930858	436.1093259553724	-1011.681288475307	955.5928898909854	305.0761228354094	-962.1103407524587	893.7418459479424	238.8442781211138	-1019.910561256898	916.8048476446654	128.8843157982976	-992.8445702803305	nan	nan	nan	899.6178839169451	120.7639743953874	-1140.963569595327	931.4719162697359	80.07182634016331	-1131.939478285418	864.0963239224463	90.8053259130094	-919.9413928500892	
2	140	812.6763205398499	1450.218965658785	-843.6986155880916	809.7070599106212	1193.356767041234	-773.2406578667452	832.3355617883969	1336.412176157375	-973.6723123063052	658.1445795071809	1428.286852262886	-912.4003704346452	976.1165301001143	1414.00806838417	-887.7827403205501	702.8874965972727	947.9576104973539	-913.2882819447826	911.8952221937706	955.5243670637037	-925.8222215079264	795.9614744005925	1020.568516807221	-761.4853588422544	838.4019369992872	1018.657518807959	-760.7393938476296	667.04088204576	1030.697087630794	-881.4673506003087	971.8237646630316	1042.969355446087	-856.5803506786368	650.0059667940055	844.4383068357527	-826.0444145666037	729.9061588093906	667.5133514528549	-872.2783989849108	674.5434720357334	635.207963122843	-777.5714948855461	693.6531640402707	522.5910590937505	-708.8667176503455	nan	nan	nan	746.1429939607427	416.4223172467926	-661.5944819212991	683.1933622821481	418.8021213364159	-529.6390553809725	740.4191835261172	329.4870166659434	-496.8736356568222	712.2233722641147	310.9441158991392	-379.4519350469384	nan	nan	nan	731.3167502845325	154.6406542811257	-390.0018937493662	696.4739439816931	163.4145388362658	-352.755864328436	765.7591591862401	372.2071298251589	-333.3203816276728	992.7186173496818	854.2437757643078	-861.9212334895726	910.9925963679783	718.4735636375144	-980.1494193179171	974.5767088289026	637.8140855688391	-922.702846247966	954.5528863232869	514.3426090731735	-942.6272803650091	nan	nan	nan	904.8784481927133	433.0420515245459	-1011.063237082358	955.2010255438664	302.3641958353132	-960.241269687783	893.1670102576031	235.5477229586333	-1017.068550133741	916.2548094104278	126.2262913034248	-988.5557108877421	nan	nan	nan	898.8487335872185	115.4078275886203	-1136.205881962103	931.0500270159803	75.35793464686896	-1126.333702868164	863.1694263318971	90.33537283426834	-915.0211160861705	
3	140.004	813.8763002257009	1447.572390938607	-843.4868676480808	810.2159182247282	1190.80319628103	-772.8988964837114	832.5590855988493	1333.741335561998	-973.4609900392431	658.8228450708372	1425.904548617479	-911.5491461067272	977.0561048245194	1411.017625629009	-888.2303951717032	703.1679416184234	945.8104467241396	-913.6977446336253	912.3954598042694	953.4070006997526	-925.7672940016821	795.5913545165827	1017.377544512021	-761.461169626695	838.0185856917655	1015.461987512121	-760.6832102695628	666.7766354929936	1028.313382949711	-880.6993251710265	971.8427867230886	1040.341348889673	-855.9975577672986	650.2695757404302	841.505823625591	-827.4390170754707	730.188325880817	665.1010544472349	-875.2419199248574	674.70293833568	631.7037917515133	-781.0143399753231	694.2382394221597	518.8290513361349	-713.8565406600403	nan	nan	nan	746.0513520179584	413.4984411804808	-664.9730316827457	683.2421558928894	419.950262469391	-533.1394365321106	739.9692819319628	331.397408927916	-498.0332974326907	711.7749499554552	316.3709005040659	-380.2339368183965	nan	nan	nan	729.7219225261416	160.0857812461785	-386.5314689260135	695.1885031310068	170.1151340362416	-349.3026168169339	765.9279055758611	378.4760989152181	-335.9891707261505	992.8957325863799	851.7379819500698	-861.5831758099829	911.5868970847849	717.7575348367945	-981.0778312418961	973.6511415857417	636.0401972329942	-923.9468499990777	954.3028895809517	511.8221011714386	-942.8181374757199	nan	nan	nan	904.5255676173225	429.9835562551713	-1010.464121461126	954.7684645715498	299.6725440799386	-958.3778010440433	892.5461198443983	232.2736208142167	-1014.231740000744	915.6639489833792	123.6049194906009	-984.2616653567239	nan	nan	nan	898.0533808205374	110.115171059159	-1131.440880922456	930.6157159153851	70.72530185006565	-1120.730913939704	862.2185670595524	89.87507195882415	-910.094474354574	
4	140.008	815.0813239125865	1444.893724983003	-843.2501121944588	810.7240401753994	1188.223731756045	-772.5725402069133	832.7761929056294	1331.049878540116	-973.2577662626128	659.4725196246409	1423.492228909253	-910.679995055256	978.0037997158893	1408.01045357915	-888.6532252657022	703.4674008796045	943.63062429713	-914.1109611586772	912.9113004366855	951.2798583455026	-925.7067409559185	795.2299942544038	1014.149739511255	-761.4402669750519	837.6446329970851	1012.23345648681	-760.6252499906299	666.528746241528	1025.884355497952	-879.9936845670787	971.8830025127518	1037.680873500178	-855.4247376652949	650.5485158462949	838.5444538276314	-828.8343161061824	730.4063939545928	662.6741426343287	-878.170691375979	674.8405826196439	628.1920883761431	-784.3959297315135	694.7773874544355	515.0792398472786	-718.7925290464549	nan	nan	nan	745.9158288470176	410.5796165259716	-668.3341513746573	683.292130757947	421.0639045247411	-536.6328166168257	739.5092526215138	333.2629181978929	-499.2360795148085	711.3548879156464	321.7199018304825	-381.0809928211366	nan	nan	nan	728.1100304301397	165.4819804818986	-383.1819307182998	693.8954852933102	176.7638044016539	-345.9792895593703	766.1506464571863	384.620090729115	-338.7185615927672	993.0735979984147	849.209435387674	-861.2744096810394	912.1835897654586	716.9663018153003	-982.0312659878398	972.7157636855776	634.2355656299402	-925.1484241725237	954.0039175978371	509.2993668123636	-943.0202457057499	nan	nan	nan	904.0935928083517	426.9214352182037	-1009.859030761064	954.2591866185033	297.012160651506	-956.4687150713102	891.8393963360111	229.0325946162316	-1011.32195683119	915.001645076861	121.0573069329022	-979.8589222786034	nan	nan	nan	897.2126708667831	104.9444620435628	-1126.559602818415	930.1627680029802	66.24878256181199	-1115.031636545938	861.2282104568536	89.43447539655764	-905.0535720926059	
